<svg width="24" height="24" viewBox="0 0 24 24" fill="none" xmlns="http://www.w3.org/2000/svg">
<path d="M17 2.00439H7C4.23858 2.00439 2 4.24297 2 7.00439V17.0044C2 19.7658 4.23858 22.0044 7 22.0044H17C19.7614 22.0044 22 19.7658 22 17.0044V7.00439C22 4.24297 19.7614 2.00439 17 2.00439Z" stroke="white" stroke-width="2" stroke-linecap="round" stroke-linejoin="round"/>
<path d="M16 11.3742C16.1234 12.2065 15.9812 13.0564 15.5937 13.8032C15.2062 14.55 14.5931 15.1556 13.8416 15.5339C13.0901 15.9121 12.2384 16.0438 11.4077 15.9101C10.5771 15.7765 9.80971 15.3843 9.21479 14.7894C8.61987 14.1944 8.22768 13.4271 8.09402 12.5964C7.96035 11.7658 8.09202 10.9141 8.47028 10.1626C8.84854 9.41106 9.45414 8.79795 10.2009 8.41045C10.9477 8.02295 11.7977 7.8808 12.63 8.00421C13.4789 8.13009 14.2648 8.52567 14.8716 9.13251C15.4785 9.73936 15.8741 10.5253 16 11.3742Z" stroke="white" stroke-width="2" stroke-linecap="round" stroke-linejoin="round"/>
<path d="M17.5 6.50439H17.51" stroke="white" stroke-width="2" stroke-linecap="round" stroke-linejoin="round"/>
</svg>
